<svg xmlns="http://www.w3.org/2000/svg" viewBox="3.25 2.25 19.5 19.5">
	<path d="M 6.25 6.375 a 4.125 4.125 0 1 1 8.25 0 a 4.125 4.125 0 0 1 -8.25 0 z M 3.25 19.125 a 7.125 7.125 0 0 1 14.25 0 v 0.003 l -0.001 0.119 a 0.75 0.75 0 0 1 -0.363 0.63 a 13.067 13.067 0 0 1 -6.761 1.873 c -2.472 0 -4.786 -0.684 -6.76 -1.873 a 0.75 0.75 0 0 1 -0.364 -0.63 l -0.001 -0.122 z M 19.75 7.5 a 0.75 0.75 0 0 0 -1.5 0 v 2.25 H 16 a 0.75 0.75 0 0 0 0 1.5 h 2.25 v 2.25 a 0.75 0.75 0 0 0 1.5 0 v -2.25 H 22 a 0.75 0.75 0 0 0 0 -1.5 h -2.25 V 7.5 z" fill="#ffff"/>
</svg>