<svg xmlns="http://www.w3.org/2000/svg" viewBox="0 0 500 500"><g id="freepik--background-simple--inject-144"><path d="M184,435.2l1.07-1.41a40,40,0,0,0,4.71-41.06,37.79,37.79,0,0,0-2.8-5,41.91,41.91,0,0,0-35.15-18.23c-8.14.16-16.61,2.66-24.22-.13-9.92-3.62-14.53-14.61-18.08-24.48s-8.2-20.84-18.13-24.43c-6.22-2.24-13.29-.94-19.33,1.83-16,7.34-26.11,24.51-27.64,41.87s4.57,34.66,14,49.25c13.26,20.43,33.91,36.68,57.92,41.86S167.49,453.46,184,435.2Z" style="fill:#f5f5f5"></path><circle cx="314.4" cy="361.06" r="20.16" style="fill:#f5f5f5"></circle></g><g id="freepik--Floor--inject-144"><path d="M472.39,473.63c0,.15-99.57.26-222.38.26s-222.4-.11-222.4-.26,99.55-.26,222.4-.26S472.39,473.49,472.39,473.63Z" style="fill:#263238"></path></g><g id="freepik--Code--inject-144"><polygon points="340.25 307.33 340.24 307.33 340.24 49.79 154.17 49.79 154.43 312.54 153.94 325.04 163.3 317.87 172.66 325.04 182.01 317.87 191.37 325.04 200.73 317.87 210.09 325.04 219.45 317.87 228.81 325.04 238.17 317.87 247.53 325.04 256.89 317.87 266.25 325.04 275.61 317.87 284.97 325.04 294.33 317.87 303.69 325.04 313.06 317.87 322.42 325.04 331.79 317.87 341.15 325.04 340.25 307.33" style="fill:#f5f5f5"></polygon><path d="M340.26,307.33c0,.48.33,6.08,1,17.7v.15l-.12-.09-9.38-7.15h.11l-9.36,7.18-.06.05-.06-.05L313,318h.14l-9.36,7.18-.08.06-.08-.06L294.25,318h.16l-9.35,7.17-.09.07-.09-.07L275.52,318h.19l-9.36,7.18-.1.07-.1-.07L256.79,318H257l-9.36,7.18-.11.08-.11-.08L238.06,318h.22l-9.35,7.18-.12.09-.12-.09L219.33,318h.24l-9.36,7.18-.12.09-.12-.09L200.6,318h.26l-9.36,7.18-.13.09-.13-.09L181.88,318h.27l-9.36,7.17-.13.11-.14-.11c-2.86-2.19-6.09-4.67-9.36-7.16h.28l-9.36,7.17-.38.29,0-.48q.24-6.39.48-12.91,0-6.53,0-13.17,0-13.31,0-27.1,0-27.59-.07-56.91c0-39.05-.09-80.16-.13-122.55,0-14.38,0-28.61,0-42.6v-.26h.26l186.07,0h.23v.23c0,76.88-.07,141.26-.1,186.42,0,22.57,0,40.35-.06,52.49,0,6.06,0,10.71,0,13.86,0,1.57,0,2.76,0,3.56s0,1.21,0,1.21h0s0-.41,0-1.21,0-2,0-3.56c0-3.15,0-7.8,0-13.86,0-12.14,0-29.92-.07-52.49,0-45.16-.05-109.54-.09-186.42l.23.23-186.07,0,.26-.26c0,14,0,28.22,0,42.6,0,42.39.08,83.51.12,122.55,0,19.52,0,38.53,0,56.91q0,13.8,0,27.1,0,6.66,0,13.18-.24,6.53-.49,12.92l-.36-.19,9.35-7.17.14-.11.14.11,9.35,7.17h-.27l9.36-7.16.13-.11.14.11,9.35,7.17h-.26l9.36-7.17.13-.09.13.09,9.35,7.18H210l9.36-7.17.12-.09.12.09,9.36,7.18h-.24l9.37-7.17.11-.09.11.09,9.36,7.18h-.22l9.37-7.17.1-.08.11.08,9.35,7.18h-.2l9.37-7.17.09-.07.1.07,9.35,7.18h-.18l9.37-7.16.08-.07.09.07,9.35,7.18h-.16l9.38-7.17.07,0,.07,0,9.35,7.18h-.12l9.37-7.15.06,0,0,0L341.2,325l-.11.06C340.54,313.41,340.28,307.81,340.26,307.33Z" style="fill:#263238"></path><polygon points="194.4 161.56 194.4 167.25 200.09 167.25 200.09 161.56 200.09 155.88 194.4 155.88 194.4 161.56" style="fill:#263238"></polygon><rect x="194.4" y="127.43" width="5.69" height="5.69" style="fill:#263238"></rect><rect x="229.55" y="190.06" width="5.69" height="5.69" style="fill:#263238"></rect><polygon points="200.09 138.81 200.09 144.5 194.4 144.5 194.4 150.19 200.09 150.19 200.09 155.88 205.78 155.88 211.47 155.88 211.47 161.56 217.16 161.56 217.16 155.88 222.84 155.88 222.84 150.19 222.84 144.5 217.16 144.5 217.16 150.19 211.47 150.19 205.78 150.19 205.78 144.5 205.78 138.81 205.78 133.12 200.09 133.12 200.09 138.81" style="fill:#263238"></polygon><polygon points="211.47 127.43 205.78 127.43 205.78 133.12 211.47 133.12 217.16 133.12 217.16 127.43 211.47 127.43" style="fill:#263238"></polygon><polygon points="237.06 173.16 240.12 173.16 240.12 167.47 237.06 167.47 234.01 167.47 234.01 173.16 237.06 173.16" style="fill:#263238"></polygon><rect x="217.16" y="133.12" width="5.69" height="5.69" style="fill:#263238"></rect><rect x="256.97" y="155.88" width="5.69" height="5.69" style="fill:#263238"></rect><rect x="262.66" y="93.3" width="5.69" height="5.69" style="fill:#263238"></rect><polygon points="234.22 138.81 234.22 133.12 239.91 133.12 239.91 127.43 234.22 127.43 234.22 121.75 228.53 121.75 228.53 127.43 222.84 127.43 222.84 133.12 228.53 133.12 228.53 138.81 228.53 144.5 228.53 150.19 228.53 155.88 234.22 155.88 234.22 150.19 234.22 144.5 239.91 144.5 239.91 138.81 234.22 138.81" style="fill:#263238"></polygon><polygon points="262.66 195.69 268.35 195.69 268.35 190.01 262.66 190.01 256.97 190.01 256.97 195.69 262.66 195.69" style="fill:#263238"></polygon><rect x="251.29" y="93.3" width="5.69" height="5.69" style="fill:#263238"></rect><polygon points="255.55 138.81 255.55 133.12 249.86 133.12 249.86 127.43 244.18 127.43 244.18 133.12 244.18 138.81 238.49 138.81 238.49 144.5 244.18 144.5 249.86 144.5 249.86 138.81 255.55 138.81" style="fill:#263238"></polygon><rect x="281.97" y="127.43" width="5.69" height="5.69" style="fill:#263238"></rect><rect x="223.01" y="155.88" width="5.69" height="5.69" style="fill:#263238"></rect><polygon points="251.29 121.75 251.29 116.06 256.97 116.06 256.97 110.37 262.66 110.37 268.35 110.37 268.35 104.68 262.66 104.68 262.66 98.99 256.97 98.99 256.97 104.68 251.29 104.68 251.29 110.37 245.6 110.37 245.6 116.06 239.91 116.06 239.91 121.75 245.6 121.75 251.29 121.75" style="fill:#263238"></polygon><polygon points="251.29 161.56 251.29 155.88 256.97 155.88 256.97 150.19 251.29 150.19 245.6 150.19 245.6 155.88 239.91 155.88 239.91 161.56 245.6 161.56 251.29 161.56" style="fill:#263238"></polygon><polygon points="268.35 184.31 268.35 178.63 262.66 178.63 256.97 178.63 256.97 172.94 251.29 172.94 251.29 178.63 245.6 178.63 245.6 184.31 239.91 184.31 234.22 184.31 234.22 190 239.91 190 245.6 190 251.29 190 251.29 184.31 256.97 184.31 256.97 190 262.66 190 262.66 184.31 268.35 184.31" style="fill:#263238"></polygon><polygon points="245.6 98.99 245.6 93.3 239.91 93.3 234.22 93.3 234.22 98.99 228.53 98.99 228.53 104.68 234.22 104.68 239.91 104.68 239.91 98.99 245.6 98.99" style="fill:#263238"></polygon><rect x="239.91" y="104.68" width="5.69" height="5.69" style="fill:#263238"></rect><polygon points="259.82 127.43 254.13 127.43 254.13 133.12 254.13 138.81 254.13 144.5 259.82 144.5 265.51 144.5 265.51 138.81 259.82 138.81 259.82 133.12 265.51 133.12 265.51 127.43 271.19 127.43 271.19 121.75 265.51 121.75 265.51 116.06 259.82 116.06 259.82 121.75 259.82 127.43" style="fill:#263238"></polygon><rect x="234.22" y="110.37" width="5.69" height="5.69" style="fill:#263238"></rect><polygon points="256.97 167.25 256.97 172.94 262.66 172.94 268.35 172.94 268.35 167.25 274.04 167.25 279.73 167.25 279.73 161.56 274.04 161.56 268.35 161.56 262.66 161.56 262.66 167.25 256.97 167.25" style="fill:#263238"></polygon><rect x="281.97" y="144.5" width="5.69" height="5.69" style="fill:#263238"></rect><rect x="262.66" y="150.19" width="5.69" height="5.69" style="fill:#263238"></rect><polygon points="282.57 133.12 276.88 133.12 271.19 133.12 271.19 138.81 276.88 138.81 276.88 144.5 282.57 144.5 282.57 138.81 282.57 133.12" style="fill:#263238"></polygon><rect x="274.04" y="150.19" width="5.69" height="5.69" style="fill:#263238"></rect><path d="M217.16,184.42h17.07V161.56H211.36v5.69h-5.58v5.69h5.58v5.69h-5.58v5.69h5.58v.1h.11V190h-5.69v11.37h5.69v-5.69h5.69V184.42Zm12.69-18.48v14.22H215.63V165.94Z" style="fill:#263238"></path><polygon points="291.1 161.56 296.79 161.56 296.79 155.88 291.1 155.88 285.42 155.88 279.73 155.88 279.73 161.56 285.42 161.56 291.1 161.56" style="fill:#263238"></polygon><polygon points="291.1 138.81 296.79 138.81 296.79 133.12 296.79 127.43 291.1 127.43 291.1 133.12 291.1 138.81" style="fill:#263238"></polygon><polygon points="245.81 167.47 240.12 167.47 240.12 173.16 240.12 178.85 245.81 178.85 245.81 173.16 245.81 167.47" style="fill:#263238"></polygon><rect x="296.79" y="161.56" width="5.69" height="5.69" style="fill:#263238"></rect><polygon points="302.48 150.19 302.48 144.5 296.79 144.5 296.79 150.19 296.79 155.88 302.48 155.88 302.48 150.19" style="fill:#263238"></polygon><polygon points="200.09 190.01 194.4 190.01 194.4 195.69 194.4 201.38 200.09 201.38 200.09 195.69 200.09 190.01" style="fill:#263238"></polygon><path d="M302.48,121.75V93.3H274v28.45Zm-24.17-4.27V97.57h19.9v19.91Z" style="fill:#263238"></path><rect x="282.57" y="101.84" width="11.38" height="11.38" style="fill:#263238"></rect><path d="M302.48,172.94H274v28.44h28.44Zm-24.17,24.18V177.21h19.9v19.91Z" style="fill:#263238"></path><rect x="282.57" y="181.47" width="11.38" height="11.38" style="fill:#263238"></rect><path d="M194.33,93.3v28.45h28.44V93.3Zm24.18,4.27v19.91H198.6V97.57Z" style="fill:#263238"></path><rect x="202.86" y="101.84" width="11.38" height="11.38" style="fill:#263238"></rect><path d="M186.22,113.13V92.93a7.5,7.5,0,0,1,1.6-5.15,7,7,0,0,1,5.54-2.29H214.6a.64.64,0,0,0,0-1.27h-21a8.82,8.82,0,0,0-5.06,1.28A8,8,0,0,0,185,92.13c-.06,3.32,0,6.65,0,10v11a.64.64,0,0,0,1.27,0Z" style="fill:#90CAF9"></path><path d="M212.74,211h-20.2a7.46,7.46,0,0,1-5.15-1.6,7,7,0,0,1-2.3-5.54V182.61a.64.64,0,0,0-1.27,0v21a8.9,8.9,0,0,0,1.28,5.06,8,8,0,0,0,6.64,3.58c3.32.06,6.65,0,10,0h11a.64.64,0,0,0,0-1.27Z" style="fill:#90CAF9"></path><path d="M310,182.41v20.2a7.43,7.43,0,0,1-1.6,5.15,7,7,0,0,1-5.54,2.29H281.6a.64.64,0,0,0,0,1.27h21a8.88,8.88,0,0,0,5.07-1.28,8,8,0,0,0,3.57-6.63c.06-3.32,0-6.65,0-10v-11a.64.64,0,0,0-1.27,0Z" style="fill:#90CAF9"></path><path d="M282,85.49h20.2a7.43,7.43,0,0,1,5.15,1.6,7,7,0,0,1,2.29,5.53v21.25a.64.64,0,0,0,1.27,0v-21a9,9,0,0,0-1.27-5.07A8,8,0,0,0,303,84.22c-3.32-.06-6.65,0-10,0H282a.64.64,0,0,0,0,1.27Z" style="fill:#90CAF9"></path><path d="M196.38,242.82l1.46-3.25a9.86,9.86,0,0,0,5.15,1.54c1.83,0,2.54-.52,2.54-1.28,0-2.47-8.88-.67-8.88-6.47,0-2.78,2.28-5.06,6.92-5.06a11.67,11.67,0,0,1,5.66,1.36l-1.36,3.28a9.21,9.21,0,0,0-4.32-1.2c-1.86,0-2.53.62-2.53,1.4,0,2.39,8.86.6,8.86,6.36,0,2.72-2.27,5-6.91,5A12.31,12.31,0,0,1,196.38,242.82Z" style="fill:#90CAF9"></path><path d="M211.11,236.42c0-4.75,3.64-8.12,8.59-8.12a8.26,8.26,0,0,1,6.72,2.95l-2.82,2.54a4.61,4.61,0,0,0-3.68-1.83,4.46,4.46,0,0,0,0,8.92,4.58,4.58,0,0,0,3.68-1.83l2.82,2.55a8.29,8.29,0,0,1-6.72,2.94C214.75,244.54,211.11,241.17,211.11,236.42Z" style="fill:#90CAF9"></path><path d="M238.58,241.19H232l-1.22,3h-4.51l6.89-15.62h4.35l6.92,15.62h-4.6Zm-1.3-3.25-2-5-2,5Z" style="fill:#90CAF9"></path><path d="M260.51,228.61v15.62h-3.64L250,235.91v8.32h-4.33V228.61h3.64l6.89,8.32v-8.32Z" style="fill:#90CAF9"></path><path d="M228.49,263.47c0,8.13-6.14,13.2-15.91,13.2h-6.25V286H196.2V250.21h16.38C222.35,250.21,228.49,255.28,228.49,263.47Zm-10.23,0c0-3.33-2.1-5.27-6.3-5.27h-5.63v10.49H212C216.16,268.69,218.26,266.74,218.26,263.47Z" style="fill:#90CAF9"></path><path d="M255.61,279.08H240.46l-2.81,7H227.31l15.82-35.83h10L269,286H258.43Zm-3-7.48L248,260.14l-4.61,11.46Z" style="fill:#90CAF9"></path><path d="M288.77,273.19V286H278.64V273L265,250.21h10.69l8.5,14.23,8.49-14.23h9.83Z" style="fill:#90CAF9"></path><path d="M274.44,230.55h-5.35v-1.94H282v1.94h-5.36v13.68h-2.21Z" style="fill:#90CAF9"></path><path d="M283,236.42c0-4.57,3.52-8,8.32-8a8,8,0,1,1,0,16C286.47,244.41,283,241,283,236.42Zm14.36,0a6.07,6.07,0,1,0-6,6A5.86,5.86,0,0,0,297.31,236.42Z" style="fill:#90CAF9"></path></g><g id="freepik--Character--inject-144"><path d="M376.93,439.58l2,21s-22.9,8.56-23.15,12.79l43.3.12,0-3.16-1.81-10.81-2.68-21Z" style="fill:#455a64"></path><path d="M392,457.33a1.82,1.82,0,0,1,1.26,2.07,1.74,1.74,0,0,1-2,1.26,1.91,1.91,0,0,1-1.32-2.19,1.8,1.8,0,0,1,2.26-1.08" style="fill:#e0e0e0"></path><path d="M399.1,473.5l0-3.16-41.53.79s-2,.86-1.74,2.25Z" style="fill:#263238"></path><path d="M378.23,460.37c0,.22,1.09.31,2.16,1s1.63,1.6,1.83,1.51-.12-1.33-1.43-2.15S378.18,460.17,378.23,460.37Z" style="fill:#263238"></path><path d="M373.59,462.3c0,.21.89.58,1.63,1.49s.95,1.88,1.16,1.87.35-1.23-.59-2.35S373.59,462.1,373.59,462.3Z" style="fill:#263238"></path><path d="M371,467.87c.2.05.5-1-.06-2.22s-1.57-1.65-1.66-1.47.53.81,1,1.79S370.75,467.85,371,467.87Z" style="fill:#263238"></path><path d="M376.7,455.32c.09.2,1.08-.11,2.3,0s2.18.47,2.29.28-.8-.95-2.25-1S376.59,455.15,376.7,455.32Z" style="fill:#263238"></path><path d="M430.14,440.18,432,460.83s-22.55,8.27-22.82,12.43l42.53.37v-3.11L450,459.89l-2.5-20.64Z" style="fill:#455a64"></path><path d="M444.82,457.71a1.77,1.77,0,0,1,1.22,2,1.7,1.7,0,0,1-2,1.23,1.86,1.86,0,0,1-1.28-2.16,1.78,1.78,0,0,1,2.22-1.05" style="fill:#e0e0e0"></path><path d="M451.71,473.63v-3.11l-40.81.53s-1.94.84-1.72,2.21Z" style="fill:#263238"></path><path d="M431.29,460.61c0,.21,1.07.31,2.12,1s1.59,1.58,1.79,1.5-.12-1.32-1.4-2.13S431.25,460.41,431.29,460.61Z" style="fill:#263238"></path><path d="M426.72,462.48c-.05.2.87.57,1.59,1.47s.92,1.85,1.13,1.85.36-1.21-.56-2.32S426.73,462.28,426.72,462.48Z" style="fill:#263238"></path><path d="M424.11,467.93c.19.05.49-1-.05-2.18s-1.54-1.63-1.63-1.45.53.8,1,1.76S423.9,467.91,424.11,467.93Z" style="fill:#263238"></path><path d="M429.82,455.63c.08.2,1.06-.09,2.26,0s2.14.47,2.25.29-.79-.94-2.2-1S429.71,455.47,429.82,455.63Z" style="fill:#263238"></path><path d="M376,256.84s-10.27,29.73-10.62,51.84-.71,57.27,3.89,96.06S376,459.11,376,459.11h23.36a459,459,0,0,0,2.12-46c-.36-21.75-2.06-28.64,0-52.56s5.4-38.3,8.88-45.55c0,0,9.64-11.46,10.35-27.18a76.77,76.77,0,0,0-4.86-29.23Z" style="fill:#263238"></path><path d="M396.75,298.55c.39,1.19,7.32,49.92,12.38,71.42s10.68,27.18,11.67,44.66c1.13,20.12,6.65,44.48,6.65,44.48h24.88s-3.5-37.17-7-66.23-8.55-64.88-7.77-75.63,2.72-24,0-39.07-8.6-19-8.6-19l-21.1-1Z" style="fill:#263238"></path><path d="M420.16,270.67a4.42,4.42,0,0,1,.39.76,14.29,14.29,0,0,1,.84,2.29,30,30,0,0,1,.82,8.9,59,59,0,0,1-2,13.12,43,43,0,0,1-2.71,7.38,54,54,0,0,1-4.5,7.13c-3.38,4.65-5,10-6.31,14.75a104.82,104.82,0,0,0-2.36,13c-.46,3.74-.74,6.78-.94,8.88-.11,1-.19,1.82-.25,2.42a4.81,4.81,0,0,1-.12.84,6.8,6.8,0,0,1,0-.85c0-.6.08-1.41.14-2.42.15-2.11.37-5.16.78-8.91a101,101,0,0,1,2.26-13.08,64.2,64.2,0,0,1,2.35-7.49,40.1,40.1,0,0,1,1.74-3.79,38.64,38.64,0,0,1,2.26-3.65,52.61,52.61,0,0,0,4.47-7.06,43.1,43.1,0,0,0,2.71-7.28,60.42,60.42,0,0,0,2.14-13,31.65,31.65,0,0,0-.65-8.84,17.24,17.24,0,0,0-.75-2.3A6.9,6.9,0,0,1,420.16,270.67Z" style="fill:#455a64"></path><path d="M345.61,156a.71.71,0,0,0-.34-.4c-.28-.12-.58.13-.79.35l-2.42,2.57,2.39,4.53A6.45,6.45,0,0,0,345.61,156Z" style="fill:#ffbf9d"></path><path d="M349.75,163.44a2.94,2.94,0,0,0-.31-1.31,1.14,1.14,0,0,0-1.14-.58,1.7,1.7,0,0,0-.94.87c-.72,1.12-1.44,2.24-2.15,3.36l2.43,5.3A12.63,12.63,0,0,0,349.75,163.44Z" style="fill:#ffbf9d"></path><path d="M350.89,170.19c-.1-.38-.33-.83-.72-.8s-.47.32-.6.58l-1.44,2.8,2.1,3.79A9.41,9.41,0,0,0,350.89,170.19Z" style="fill:#ffbf9d"></path><path d="M321.25,156.53l15.2,37.8a1.61,1.61,0,0,0,1.71,1l15.72-2.21a1.6,1.6,0,0,0,1.28-2.14L341.6,153.4a1.62,1.62,0,0,0-1.69-1.05l-17.35,2A1.6,1.6,0,0,0,321.25,156.53Z" style="fill:#263238"></path><path d="M323,156.71l14.35,35.69a.44.44,0,0,0,.47.27l16-2.26a.43.43,0,0,0,.35-.57l-12.8-35.45a.45.45,0,0,0-.46-.28l-17.58,2A.43.43,0,0,0,323,156.71Z" style="fill:#455a64"></path><path d="M332.76,170.79l.13-.51a1.67,1.67,0,0,0,.95.14c.37-.06.5-.21.47-.38-.08-.51-1.6.1-1.77-.9-.08-.47.23-.91,1-1a1.82,1.82,0,0,1,1,.08l-.12.51a1.59,1.59,0,0,0-.79-.09c-.37.07-.49.23-.46.4.08.5,1.6-.11,1.77.89.08.45-.24.9-1,1A1.88,1.88,0,0,1,332.76,170.79Z" style="fill:#fff"></path><path d="M335.1,169.28a1.41,1.41,0,0,1,1.24-1.65,1.45,1.45,0,0,1,1.2.29l-.34.45a.88.88,0,0,0-.74-.21.88.88,0,0,0,.29,1.74.89.89,0,0,0,.63-.44l.47.31a1.52,1.52,0,0,1-2.75-.49Z" style="fill:#fff"></path><path d="M340,169.26l-1.26.21-.14.63-.65.1.76-2.92.62-.1L341,169.7l-.66.11Zm-.27-.44-.61-1-.26,1.11Z" style="fill:#fff"></path><path d="M343.31,166.51l.45,2.72-.52.09-1.63-1.43.28,1.65-.62.11-.46-2.72.52-.09,1.63,1.43-.28-1.65Z" style="fill:#fff"></path><path d="M324.84,178.8l1.68-17.41s2.56,0,3.32,3.7a66.47,66.47,0,0,1,.8,10.11s4.53,2.11,5.86,13l3.08,3.73-7.15,7.16S325.11,184.94,324.84,178.8Z" style="fill:#ffbf9d"></path><path d="M345.69,179.33l-8.43,1.48a1.86,1.86,0,0,1-2.06-1.19h0a1.85,1.85,0,0,1,1.41-2.46l8.43-1.49a1.84,1.84,0,0,1,2,1v0A1.85,1.85,0,0,1,345.69,179.33Z" style="fill:#90CAF9"></path><path d="M338.39,165c0,.14-.69.36-1.62.49a9.56,9.56,0,0,1-1.17.09l0-.38.31.06v.25c-.13,0-.2-.08-.2-.12s.07-.09.2-.13v.25l-.3.07,0-.38a8.88,8.88,0,0,1,1.13-.23C337.61,164.85,338.36,164.86,338.39,165Z" style="fill:#fff"></path><path d="M344.15,171.57a24.66,24.66,0,0,1-4.83,1.17,23.92,23.92,0,0,1-4.92.65,24.18,24.18,0,0,1,4.83-1.17A23.92,23.92,0,0,1,344.15,171.57Z" style="fill:#fff"></path><path d="M432.06,136.85c-2.08-14.42-5.76-30.24-26.36-28.77,0,0-11,2.06-17,11.43-3.55,5.51,2.38,42.43,7.05,56.73l38.83,3.06,6.53-1.94S433.35,145.81,432.06,136.85Z" style="fill:#263238"></path><path d="M403,113.45l1.29-1.23,13.93,5.61a3.89,3.89,0,0,1,3.67,3.77L421.73,167a12.73,12.73,0,0,1-2.46,8.19l-2,2.58a10.27,10.27,0,0,1-17.16-1.08,4.6,4.6,0,0,1-.49-1.17,7.73,7.73,0,0,1-.21-1c-.41-3.65-.44-6.81-.44-6.81-.25-4-.33-5.66-.33-5.62s-8.53-1-10.83-11.93c-1.15-5.44-.93-12.93-.61-20.3C387.69,119.6,394.76,113.44,403,113.45Z" style="fill:#ffbf9d"></path><path d="M403.87,138a1.43,1.43,0,0,0,1.44,1.36,1.36,1.36,0,0,0,1.4-1.35,1.43,1.43,0,0,0-1.44-1.36A1.36,1.36,0,0,0,403.87,138Z" style="fill:#263238"></path><path d="M389.73,138.44a1.42,1.42,0,0,0,1.44,1.36,1.35,1.35,0,0,0,1.39-1.35,1.41,1.41,0,0,0-1.43-1.36A1.36,1.36,0,0,0,389.73,138.44Z" style="fill:#263238"></path><path d="M388.7,132.72c.18.18,1.21-.67,2.74-.74s2.67.63,2.83.44-.12-.41-.62-.74a3.82,3.82,0,0,0-2.28-.58,3.71,3.71,0,0,0-2.17.82C388.75,132.3,388.6,132.64,388.7,132.72Z" style="fill:#263238"></path><path d="M404.15,132.88c.2.16,1.15-.79,2.65-1s2.73.35,2.87.14-.16-.39-.7-.67a3.86,3.86,0,0,0-2.33-.34,3.74,3.74,0,0,0-2.07,1C404.16,132.46,404.05,132.81,404.15,132.88Z" style="fill:#263238"></path><path d="M398.83,144a9.72,9.72,0,0,0-2.5-.33c-.39,0-.76-.08-.84-.34a2.06,2.06,0,0,1,.2-1.16l1-3c1.38-4.3,2.36-7.82,2.19-7.88s-1.44,3.39-2.82,7.68l-.95,3a2.2,2.2,0,0,0-.13,1.53,1,1,0,0,0,.67.54,2.69,2.69,0,0,0,.66.06A10.81,10.81,0,0,0,398.83,144Z" style="fill:#263238"></path><path d="M398.68,162a28.07,28.07,0,0,0,14.58-4.68s-3.33,7.82-14.43,7.35Z" style="fill:#ff9a6c"></path><path d="M399.66,147.6a2.76,2.76,0,0,1,2.41-1.14,2.52,2.52,0,0,1,1.77.84,1.59,1.59,0,0,1,.22,1.81,1.85,1.85,0,0,1-2,.61,5.75,5.75,0,0,1-2-1.07,1.57,1.57,0,0,1-.46-.43.5.5,0,0,1,0-.56" style="fill:#ff9a6c"></path><path d="M403.37,144.8c-.25,0-.17,1.65-1.53,2.89s-3.12,1.15-3.13,1.38.41.31,1.16.29a4.11,4.11,0,0,0,2.61-1.06,3.57,3.57,0,0,0,1.17-2.43C403.68,145.18,403.48,144.78,403.37,144.8Z" style="fill:#263238"></path><path d="M402.69,126.94c.21.39,1.69,0,3.49-.09s3.31.2,3.48-.2c.08-.19-.22-.54-.86-.85a5.7,5.7,0,0,0-2.68-.5,5.84,5.84,0,0,0-2.63.72C402.88,126.39,402.6,126.76,402.69,126.94Z" style="fill:#263238"></path><path d="M388.91,126.18c.29.33,1.32-.08,2.58-.16s2.34.11,2.57-.26c.1-.18-.09-.52-.57-.82a3.5,3.5,0,0,0-2.12-.46,3.65,3.65,0,0,0-2,.79C388.92,125.65,388.79,126,388.91,126.18Z" style="fill:#263238"></path><path d="M421.57,141s-7.8,2.43-12.22-16.82c-1.5-6.59-7.61-11.92-7.61-11.92l2.48-.74s15.38,4.33,15.64,4.52,3.88,8,3.88,8Z" style="fill:#263238"></path><path d="M419.65,140.24c0-.82.81-2.8,1.62-3,2.15-.45,6.06-.47,6.37,5,.43,7.52-7.21,6.4-7.23,6.19S419.78,143.08,419.65,140.24Z" style="fill:#ffbf9d"></path><path d="M422.54,145.51s.14.08.37.17a1.29,1.29,0,0,0,1,0c.77-.33,1.37-1.63,1.33-3a4.4,4.4,0,0,0-.47-1.86,1.54,1.54,0,0,0-1-.95.68.68,0,0,0-.76.41c-.09.21,0,.36-.07.38s-.17-.12-.12-.43a.82.82,0,0,1,.26-.49,1,1,0,0,1,.72-.24,1.86,1.86,0,0,1,1.43,1.09,4.46,4.46,0,0,1,.58,2.07c0,1.52-.66,3-1.73,3.36a1.42,1.42,0,0,1-1.21-.13C422.57,145.69,422.52,145.52,422.54,145.51Z" style="fill:#ff9a6c"></path><path d="M368.37,185.33c2.65,4.24,5.21,11.93,5.21,11.93l-6.77,8.82s-11.47-6-14.73-7.92a6.58,6.58,0,0,0-2.8-1,1.7,1.7,0,0,1-.2-3.35,10.47,10.47,0,0,1,3.07.48,9,9,0,0,0,3.69.53s-.55-.62-1.63-2.16-6.46-7.05-8.14-9.71c-2.14-3.39-1.25-5.43-.08-5,1.45.56,7.93,9.43,9,9.09,0,0,.95-1.76,2.06-2a5.7,5.7,0,0,1,2.24,0s.12-1.63,1.16-2.08A4,4,0,0,1,363,183s.11-1.51.93-1.7S366.38,182.14,368.37,185.33Z" style="fill:#ffbf9d"></path><path d="M340.55,191.05c.13.4,18.62,19.33,18.62,19.33S374.6,193,379.3,186.6s9.41-14.23,15.54-15.7S408.67,173,408.67,173l-7.62,22.73-13.72,18.85s-14.81,18.61-21.86,21.49-14-1.26-17-4.39-20.8-30.19-20.8-30.19Z" style="fill:#90CAF9"></path><path d="M422.11,259.84l-46.78-2.6s5-21.83,9.46-43.69S401,170.9,401,170.9l42.55,7.37s1.53,11.77-3.75,33.24c-2.43,9.9-8.16,21.39-13.78,35.42l5.61,13.44-9.54-.53" style="fill:#90CAF9"></path><path d="M400,199.06a5.06,5.06,0,0,1-.69.93l-2,2.43c-1.69,2.06-4,4.94-6.5,8.11s-4.87,6-6.63,8c-.88,1-1.6,1.8-2.12,2.33a4.9,4.9,0,0,1-.85.8,5.76,5.76,0,0,1,.69-.93c.55-.66,1.21-1.48,2-2.44,1.68-2.06,4-4.93,6.5-8.11s4.86-6,6.62-8c.88-1,1.61-1.8,2.13-2.34A5.19,5.19,0,0,1,400,199.06Z" style="fill:#263238"></path><path d="M423.92,246.45a26.49,26.49,0,0,1-3.5-.42c-2.15-.3-5.13-.7-8.42-1.05s-6.29-.57-8.46-.72a25.64,25.64,0,0,1-3.51-.32,3.62,3.62,0,0,1,1-.07c.61,0,1.49,0,2.58,0,2.18.05,5.19.23,8.49.57s6.29.81,8.43,1.21c1.07.2,1.93.37,2.53.51A3.57,3.57,0,0,1,423.92,246.45Z" style="fill:#263238"></path><path d="M443.22,175.43c-1.23-4.54-4.49-7.11-5.41-11.72-.79-4,1.23-8.68.47-12.66s-2.55-6.93-3.79-10.69c-1.07-3.23-2.54-6.36-3.12-9.71a54,54,0,0,0-.93-5.83c-.55-1.89-2.78-5.07-7.39-11.62l-13.16,13.11c2,9.91,5.92,12.36,5.81,18.47,0,2.33-.54,4.76.28,6.95.69,1.83,2.27,3.33,2.49,5.28.3,2.65-2,4.89-2.49,7.52s1,5.38,1.44,8.13c.63,4.21-1.38,8.32-2.14,12.51a8.62,8.62,0,0,0,.68,6c1.53,2.46,4.7,3.22,7.55,3.75,2.26.43,4.63.85,6.81.14s4-3,3.48-5.19c.55,1.46,1.11,2.91,1.66,4.37a6.1,6.1,0,0,0,6.78-2.05c1.59-2,.8-4.34.64-6.87S443.87,177.88,443.22,175.43Z" style="fill:#263238"></path><path d="M432.56,187.41a7.94,7.94,0,0,0,1.85-2.64,9.62,9.62,0,0,0,.71-3.72,14.25,14.25,0,0,0-1-4.93c-.65-1.77-1.59-3.61-2.52-5.64a20.24,20.24,0,0,1-2-6.87,11,11,0,0,1,.45-3.88,22.4,22.4,0,0,0,1-3.83,5.21,5.21,0,0,0-1.08-3.72,17.89,17.89,0,0,0-3-2.93,15.1,15.1,0,0,1-3-3.1,7.11,7.11,0,0,1-1.17-4.07c0-2.79.85-5.35.63-7.8a9.33,9.33,0,0,0-3.18-6,34.14,34.14,0,0,0-4.91-3.7c-3.19-2-5.52-4.2-6.53-6.11a8.16,8.16,0,0,1-.89-2.28c-.05-.28-.07-.49-.09-.63a.91.91,0,0,1,0-.22,9.87,9.87,0,0,0,1.16,3c1,1.84,3.37,3.91,6.56,5.91a33.7,33.7,0,0,1,5,3.69,9.75,9.75,0,0,1,3.36,6.26c.23,2.58-.61,5.17-.6,7.83a6.62,6.62,0,0,0,1.09,3.79,14.89,14.89,0,0,0,2.94,3,18.39,18.39,0,0,1,3.1,3,5.69,5.69,0,0,1,1.16,4.07,21.32,21.32,0,0,1-1,3.93,10.33,10.33,0,0,0-.45,3.71A20.15,20.15,0,0,0,432,170.3c.91,2,1.84,3.89,2.47,5.7a14.24,14.24,0,0,1,.94,5.05,9.65,9.65,0,0,1-.81,3.8,6.87,6.87,0,0,1-1.38,2A3.27,3.27,0,0,1,432.56,187.41Z" style="fill:#455a64"></path></g></svg>
